<svg width="307" height="301" viewBox="0 0 307 301" fill="none" xmlns="http://www.w3.org/2000/svg">
<path d="M0.336879 299.872C0.323721 300.227 0.521878 300.609 0.780255 300.717C1.51725 301.026 2.89831 281.77 3.15776 279.581C4.84333 265.361 7.32491 251.575 10.5346 238.343C20.1338 198.768 36.2144 164.527 56.2435 136.166C118.273 48.3352 213.253 12.1028 306.099 1.70509C307.726 1.52293 303.517 0.473658 302.913 0.511139C299.054 0.750351 295.202 1.0211 291.358 1.33923C281.081 2.18991 270.863 3.3424 260.72 4.83584C230.608 9.26914 201.104 16.7792 173.046 28.6037C84.8393 65.7755 5.68423 155.546 0.336879 299.872Z" fill="#F4A14C"/>
</svg>
