<svg width="210" height="434" viewBox="0 0 210 434" fill="none" xmlns="http://www.w3.org/2000/svg">
<path d="M1.6161 0.157901C1.25844 0.000791569 0.78811 0.0489153 0.572939 0.269217C-0.0408174 0.897609 19.0828 10.0989 21.2152 11.2496C35.0682 18.7249 48.1546 26.8379 60.3813 35.4714C96.9484 61.2921 125.443 91.5802 146.328 123.525C211.01 222.458 209.622 334.195 182.691 433.303C182.219 435.039 184.994 431.161 185.201 430.528C186.517 426.488 187.799 422.441 189.028 418.383C192.316 407.535 195.272 396.625 197.848 385.653C205.498 353.082 209.757 319.887 209.021 286.424C206.709 181.229 146.973 64.0076 1.6161 0.157901Z" fill="#F4A14C"/>
</svg>
