<svg width="637" height="330" viewBox="0 0 637 330" fill="none" xmlns="http://www.w3.org/2000/svg">
<path d="M0.477819 0.686805C0.174124 -0.971309 3.00733 7.16677 3.30635 8.32183C4.82971 14.2063 6.63794 20.0169 8.69588 25.7361C14.7691 42.6142 23.004 58.6966 32.8682 73.668C62.6606 118.886 107.096 153.268 157.424 172.827C188.318 184.834 221.166 191.294 254.216 193.152C277.2 194.444 300.249 194.324 323.244 195.667C429.172 201.857 584.192 219.863 636.451 328.783C637.269 330.488 632.828 324.129 632.382 323.341C629.814 318.8 627.027 314.383 624.031 310.112C615.02 297.265 604.118 285.815 591.919 275.961C556.039 246.976 510.706 231.917 466.161 222.459C417.285 212.082 367.186 208.04 317.349 205.862C281.407 204.292 245.495 205.046 210.095 197.793C111.59 177.611 19.2524 103.192 0.477819 0.686805Z" fill="#F4A14C"/>
</svg>
