<svg width="270" height="376" viewBox="0 0 270 376" fill="none" xmlns="http://www.w3.org/2000/svg">
<path d="M268.86 375.701C269.235 375.775 269.674 375.63 269.832 375.374C270.285 374.645 250.091 369.911 247.812 369.265C233.012 365.063 218.809 360.09 205.316 354.439C164.961 337.539 131.363 314.667 104.676 288.605C22.0244 207.89 -0.293474 100.978 4.43441 0.713143C4.51724 -1.04338 2.6897 3.2437 2.62686 3.89133C2.22576 8.02522 1.8591 12.1584 1.54427 16.2899C0.702401 27.3372 0.190859 38.3726 0.0535851 49.3873C-0.353931 82.0846 2.6057 114.66 10.3878 146.434C34.852 246.321 116.653 345.532 268.86 375.701Z" fill="#F4A14C"/>
</svg>
