<svg width="699" height="222" viewBox="0 0 699 222" fill="none" xmlns="http://www.w3.org/2000/svg">
<path d="M695.952 0.158543C695.916 -0.305191 697.68 8.90752 697.797 11.4228C698.184 19.7195 698.144 28.0386 697.614 36.3284C696.007 61.4607 690.397 86.2889 680.657 109.529C652.289 177.211 587.311 221.154 513.588 221.167C422.591 221.184 347.673 154.975 283.916 97.7074C250.397 67.6003 217.258 36.3248 174.802 19.3418C116.963 -3.7943 56.5631 6.73213 0.21668 28.7998C-1.24185 29.371 5.21266 25.6795 6.41569 25.2017C11.6007 23.1425 16.819 21.1708 22.0767 19.3047C37.5627 13.8081 53.4463 9.26152 69.6301 6.34927C119.575 -2.63834 168.907 6.69164 212.494 32.659C297.269 83.1646 351.907 166.6 451.393 201.421C473.638 209.208 497.087 213.637 520.704 213.117C633.299 210.642 704.16 106.438 695.952 0.158543Z" fill="#F4A14C"/>
</svg>
