<svg width="504" height="169" viewBox="0 0 504 169" fill="none" xmlns="http://www.w3.org/2000/svg">
<path d="M0.143288 1.59301C-0.19224 1.15163 0.367057 0.559654 0.824745 0.877426C5.0023 3.77789 8.46576 9.6899 12.2394 13.2828C20.5174 21.1645 29.7261 28.0394 39.335 34.2083C68.1388 52.7002 100.62 65.3761 133.387 74.861C250.413 108.736 405.566 81.1681 503.124 167.932C503.399 168.177 503.319 168.641 502.973 168.774C501.518 169.335 492.128 160.371 490.476 159.154C481.936 152.861 472.909 147.241 463.51 142.325C435.154 127.493 403.877 119.228 372.527 113.595C275.851 96.2267 183.3 102.275 90.958 63.5362C57.8183 49.6335 22.3498 30.8054 0.143288 1.59301Z" fill="#F4A14C"/>
</svg>
