<svg width="471" height="363" viewBox="0 0 471 363" fill="none" xmlns="http://www.w3.org/2000/svg">
<path d="M0.951448 0.630761C0.917517 -0.9933 1.92346 4.70204 1.95209 5.30602C2.11207 8.68058 2.32567 12.0527 2.5841 15.4212C3.35192 25.4291 4.50274 35.4079 5.96127 45.3387C10.3431 75.1735 17.3954 104.716 27.5311 133.133C57.9398 218.387 134.496 307.568 235.712 277.717C251.656 273.015 266.659 264.971 279.107 253.921C288.446 245.63 296.385 235.621 301.744 224.306C336.444 151.035 234.024 104.291 181.695 148.981C125.029 197.377 172.037 285.385 219.787 319.987C293.103 373.115 390.734 365.671 470.469 332.358C471.399 331.97 461.952 336.914 460.325 337.577C452.195 340.887 443.977 343.941 435.649 346.715C411.239 354.844 385.864 360.08 360.194 361.941C283.549 367.497 197.699 336.188 161.97 263.786C153.789 247.206 149.155 228.809 149.103 210.299C149.062 195.567 151.454 180.916 157.711 167.502C197.367 82.4799 352.128 132.45 308.259 226.448C302.731 238.292 294.427 248.72 284.786 257.474C227.622 309.378 137.224 289.623 86.4077 238.692C26.9627 179.112 2.66644 82.7213 0.951448 0.630761Z" fill="#F4A14C"/>
</svg>
